<svg width="8" height="8" viewBox="0 0 8 8" fill="none" xmlns="http://www.w3.org/2000/svg">
<path d="M6.22271 3.68784L2.66261 0.127804C2.58027 0.045398 2.47035 0 2.35315 0C2.23595 0 2.12603 0.045398 2.04369 0.127804L1.78151 0.389915C1.61091 0.560711 1.61091 0.838302 1.78151 1.00884L4.77102 3.99834L1.77819 6.99116C1.69585 7.07357 1.65039 7.18342 1.65039 7.30056C1.65039 7.41783 1.69585 7.52768 1.77819 7.61015L2.04037 7.8722C2.12278 7.9546 2.23263 8 2.34983 8C2.46703 8 2.57695 7.9546 2.65929 7.8722L6.22271 4.30891C6.30525 4.22624 6.35058 4.11587 6.35032 3.99854C6.35058 3.88075 6.30525 3.77044 6.22271 3.68784Z" fill="#C4C4C4"/>
</svg>
