<svg width="67" height="50" viewBox="0 0 67 50" fill="none" xmlns="http://www.w3.org/2000/svg">
<g clip-path="url(#clip0_6915_5016)">
<path d="M64.4205 39.3099L49.6161 24.4836C52.3939 18.1694 51.2053 10.5135 46.0482 5.34879C39.3292 -1.38013 28.4533 -1.38104 21.7335 5.34879C15.0302 12.0619 15.0302 22.985 21.7335 29.6981C27.0603 35.0327 34.8667 36.0484 41.0987 33.1638L55.8275 47.9143C58.2022 50.2924 62.0463 50.2927 64.421 47.9138C66.7892 45.5416 66.7889 41.682 64.4205 39.3099ZM24.4766 26.9522C19.2851 21.7532 19.2851 13.2938 24.4766 8.0947C29.6795 2.88406 38.1012 2.88315 43.3051 8.0947C48.4965 13.2938 48.4965 21.7532 43.3051 26.9522C38.102 32.163 29.6802 32.1638 24.4766 26.9522ZM61.6775 45.1683C60.819 46.0282 59.4293 46.0286 58.5705 45.1684L44.4986 31.0757C45.6553 30.164 46.6862 29.1173 47.5813 27.9389L61.6773 42.0557C62.5341 42.9139 62.5343 44.3101 61.6775 45.1683Z" fill="#01E45C"/>
<path d="M1.93946 23.5707H10.2096C11.2807 23.5707 12.149 22.7013 12.149 21.6289C12.149 20.5564 11.2807 19.687 10.2096 19.687H1.93946C0.86836 19.687 0 20.5564 0 21.6289C0 22.7013 0.86836 23.5707 1.93946 23.5707Z" fill="#2B2B2B"/>
<path d="M1.93946 31.8559H13.3109C14.382 31.8559 15.2503 30.9864 15.2503 29.914C15.2503 28.8416 14.382 27.9722 13.3109 27.9722H1.93946C0.86836 27.9722 0 28.8416 0 29.914C0 30.9864 0.86836 31.8559 1.93946 31.8559Z" fill="#2B2B2B"/>
<path d="M1.93946 40.1411H21.5811C22.6522 40.1411 23.5206 39.2716 23.5206 38.1992C23.5206 37.1268 22.6522 36.2573 21.5811 36.2573H1.93946C0.86836 36.2573 0 37.1268 0 38.1992C0 39.2716 0.86836 40.1411 1.93946 40.1411Z" fill="#2B2B2B"/>
<path d="M44.3242 44.5425H1.93946C0.86836 44.5425 0 45.4119 0 46.4843C0 47.5568 0.86836 48.4262 1.93946 48.4262H44.3242C45.3953 48.4262 46.2637 47.5568 46.2637 46.4843C46.2637 45.4119 45.3953 44.5425 44.3242 44.5425Z" fill="#2B2B2B"/>
</g>
<defs>
<clipPath id="clip0_6915_5016">
<rect width="66.1972" height="50" fill="white"/>
</clipPath>
</defs>
</svg>
