<svg width="767" height="555" viewBox="0 0 767 555" fill="none" xmlns="http://www.w3.org/2000/svg">
<g clip-path="url(#clip0_6915_4535)">
<path d="M768 0H-399V555H768V0Z" fill="#F8F8F8"/>
<path opacity="0.34" d="M146.881 320.897L179.923 314.567L224.864 289.497C229.578 286.869 229.28 280.013 224.36 277.797L201.295 267.444L146.881 320.897Z" fill="#ABABAB"/>
<path d="M191.616 164.905L191.433 164.79L190.998 267.148C190.998 267.582 190.769 267.993 190.38 268.199L123.975 306.134C123.152 306.591 122.58 200.326 122.58 200.326C122.58 199.892 122.808 199.481 123.197 199.275L189.328 161.522C189.671 161.34 190.151 161.157 190.517 161.317L192.714 162.459L191.616 164.905Z" fill="#0BAF1B"/>
<path d="M125.142 200.394L191.547 162.459C192.371 162.002 193.378 162.573 193.378 163.533L192.966 268.29C192.966 268.724 192.737 269.135 192.348 269.341L125.943 307.276C125.623 306.728 125.051 306.02 124.113 306.202L124.548 201.469C124.525 201.012 124.776 200.623 125.142 200.394Z" fill="#00C213"/>
<path d="M210.471 175.714C198.435 173.451 195.643 172.195 192.028 166.687L129.284 202.566C129.81 206.702 134.204 212.21 149.192 211.593L210.471 175.714Z" fill="#FFFAFA"/>
<path d="M213.789 176.148L210.677 174.434C210.311 174.114 209.67 174.183 209.189 174.457L143.54 211.936C143.151 212.141 142.922 212.553 142.922 212.987L142.487 317.721C142.487 318.658 143.494 319.252 144.318 318.795L210.722 280.859C211.111 280.654 211.34 280.242 211.34 279.808L211.752 179.325L213.514 179.142L213.789 176.148Z" fill="#00C213"/>
<path d="M145.897 214.564C133.563 215.432 126.699 208.325 122.648 199.915L123.678 307.414C123.884 319.983 143.998 322.862 145.897 321.011V214.564Z" fill="#00C213"/>
<path d="M146.331 214.152L212.736 176.217C213.56 175.76 214.567 176.331 214.567 177.291L214.132 282.025C214.132 282.459 213.903 282.87 213.514 283.076L146.881 320.874C146.057 321.331 145.279 320.874 145.279 319.937L145.714 215.204C145.714 214.769 145.942 214.381 146.331 214.152Z" fill="#01E45C"/>
<path opacity="0.34" d="M200.288 345.784L232.346 339.293L272.962 314.384C277.219 311.779 275.662 305.06 270.308 302.958L245.229 293.062L200.288 345.784Z" fill="#ABABAB"/>
<path d="M216.809 192.899L216.603 192.785L234.84 292.834C234.909 293.268 234.749 293.656 234.406 293.862L174.545 331.546C173.813 332.003 153.837 228.138 153.837 228.138C153.768 227.704 153.928 227.315 154.272 227.109L213.857 189.585C214.155 189.403 214.612 189.22 215.001 189.38L217.427 190.477L216.809 192.899Z" fill="#7C64BA"/>
<path d="M156.468 228.229L216.329 190.545C217.061 190.088 218.205 190.659 218.365 191.574L237.037 293.954C237.106 294.388 236.945 294.776 236.602 294.982L176.742 332.666C176.307 332.117 175.621 331.455 174.706 331.638L156.034 229.258C155.965 228.823 156.125 228.435 156.468 228.229Z" fill="#504078"/>
<path d="M237.747 203.297C225.253 201.195 222.187 199.983 217.564 194.659L161.022 230.309C162.303 234.354 167.727 239.701 182.692 238.947L237.747 203.297Z" fill="#FFFAFA"/>
<path d="M241.156 203.685L237.724 202.04C237.289 201.743 236.671 201.789 236.236 202.063L177.063 239.336C176.719 239.541 176.559 239.953 176.628 240.364L195.3 342.744C195.46 343.658 196.604 344.229 197.336 343.772L257.197 306.088C257.54 305.882 257.7 305.471 257.631 305.06L239.714 206.816L241.454 206.611L241.156 203.685Z" fill="#504078"/>
<path d="M179.923 241.872C167.681 242.832 159.489 235.953 153.883 227.772L174.523 332.849C177.017 345.143 197.771 347.771 199.35 345.943L179.923 241.872Z" fill="#8B73CB"/>
<path d="M180.266 241.461L240.126 203.777C240.858 203.32 242.002 203.891 242.162 204.805L260.834 307.185C260.903 307.62 260.743 308.008 260.4 308.214L200.288 345.784C199.556 346.241 198.663 345.806 198.503 344.892L179.831 242.512C179.762 242.078 179.923 241.667 180.266 241.461Z" fill="#7C64BA"/>
<path d="M182.531 245.186L200.517 341.556" stroke="#433878" stroke-width="2.576" stroke-miterlimit="10" stroke-linecap="round" stroke-linejoin="round"/>
<path d="M232.14 247.951L208.48 261C204.087 263.422 199.19 261.617 197.611 256.978L197.039 255.31C195.46 250.671 197.771 244.889 202.165 242.444L225.825 229.395C230.218 226.972 235.115 228.778 236.694 233.417L237.266 235.085C238.845 239.724 236.534 245.506 232.14 247.951Z" stroke="#FFFAFA" stroke-width="3.7942" stroke-miterlimit="10"/>
<path d="M122.923 255.676C128.415 270.05 137.476 278.688 145.256 282.825V269.364C137.316 264.588 129.856 254.464 122.923 238.993V255.676Z" fill="#FFFAFA"/>
<path d="M238.754 360.432L238.823 351.017L246.465 357.462L248.113 353.691L439.752 243.198C442.064 241.873 446.64 242.033 449.317 243.564L532.335 291.143V289.818L544.943 295.942L546.705 295.234L546.476 301.038C546.293 302.295 545.789 302.821 545.011 303.278L345.592 418.57C343.28 419.895 339.207 419.895 336.553 418.341L240.996 363.312C239.532 362.466 238.8 361.438 238.8 360.41L238.754 360.432Z" fill="#2B2B2B"/>
<path d="M345.66 410.822L545.08 295.828C547.391 294.502 547.094 292.148 544.439 290.617L448.883 235.519C446.228 233.988 442.155 233.806 439.844 235.154L240.424 350.148C238.113 351.474 238.411 353.828 241.065 355.359L336.622 410.457C339.299 411.988 343.349 412.148 345.66 410.822Z" fill="#FFFAFA"/>
<path d="M218.755 213.375C216.1 214.906 214.316 218.426 214.773 221.236L235.459 348.983C235.917 351.794 238.434 352.845 241.088 351.314L436.984 238.353C439.638 236.822 441.423 233.303 440.965 230.492L420.28 102.745C419.822 99.9345 417.305 98.8833 414.651 100.414L218.755 213.375Z" fill="#FFFAFA"/>
<path d="M206.902 202.109C206.902 202.04 206.902 201.972 206.902 201.88V201.857V201.835C206.902 201.789 206.902 201.743 206.925 201.675C206.925 201.606 206.948 201.537 206.948 201.469C206.948 201.446 206.947 201.4 206.97 201.377C206.97 201.355 206.97 201.355 206.97 201.332C206.97 201.309 206.97 201.286 206.97 201.263C206.97 201.195 206.993 201.126 207.016 201.058C207.039 200.989 207.039 200.92 207.062 200.852C207.085 200.783 207.085 200.715 207.108 200.646C207.131 200.578 207.153 200.509 207.153 200.441C207.153 200.418 207.153 200.395 207.176 200.395C207.176 200.372 207.176 200.372 207.199 200.349C207.199 200.303 207.222 200.281 207.222 200.235C207.245 200.166 207.268 200.098 207.291 200.029C207.314 199.983 207.337 199.938 207.337 199.869V199.846V199.824C207.359 199.755 207.382 199.686 207.405 199.641C207.428 199.572 207.451 199.526 207.474 199.458C207.474 199.435 207.497 199.412 207.497 199.389C207.497 199.389 207.497 199.366 207.52 199.366C207.52 199.344 207.542 199.321 207.542 199.298C207.565 199.229 207.588 199.161 207.634 199.115C207.68 199.069 207.703 198.978 207.725 198.932V198.909C207.725 198.909 207.726 198.887 207.748 198.887C207.771 198.818 207.817 198.749 207.84 198.681C207.863 198.612 207.909 198.567 207.931 198.498C207.954 198.452 207.977 198.407 208 198.384C208 198.361 208.023 198.338 208.023 198.338C208.092 198.247 208.137 198.155 208.206 198.041C208.229 198.018 208.252 197.972 208.275 197.95C208.275 197.95 208.275 197.95 208.275 197.927C208.343 197.812 208.435 197.698 208.526 197.584C208.549 197.561 208.549 197.561 208.572 197.538C208.572 197.515 208.595 197.515 208.595 197.493C208.618 197.447 208.664 197.424 208.687 197.378C208.732 197.31 208.778 197.241 208.847 197.195C208.87 197.173 208.892 197.15 208.915 197.127C208.915 197.104 208.938 197.104 208.938 197.081C208.961 197.058 208.984 197.035 209.007 197.013C209.053 196.944 209.121 196.898 209.167 196.83C209.213 196.784 209.259 196.738 209.281 196.693L209.304 196.67L209.327 196.647C209.373 196.578 209.442 196.533 209.51 196.487C209.579 196.418 209.625 196.373 209.693 196.327C209.762 196.281 209.808 196.213 209.876 196.167C209.945 196.121 210.014 196.053 210.059 196.007L210.082 195.984L210.105 195.961C210.151 195.916 210.197 195.893 210.243 195.847C210.311 195.801 210.38 195.756 210.448 195.71C210.471 195.687 210.494 195.687 210.494 195.664C210.494 195.664 210.517 195.664 210.517 195.641C210.563 195.619 210.586 195.596 210.632 195.573C210.7 195.527 210.769 195.481 210.837 195.459C210.86 195.459 215.574 192.739 215.574 192.716L221.386 196.236C221.386 196.236 216.398 198.841 216.329 198.887C216.261 198.932 216.192 198.978 216.123 199.024C216.055 199.069 215.986 199.115 215.917 199.161C215.849 199.206 215.78 199.252 215.734 199.298C215.711 199.321 215.688 199.344 215.666 199.366C215.574 199.458 215.46 199.526 215.368 199.618C215.277 199.709 215.162 199.801 215.071 199.892C215.048 199.915 215.048 199.915 215.025 199.938C214.933 200.029 214.842 200.121 214.75 200.212C214.727 200.235 214.727 200.235 214.705 200.258C214.613 200.349 214.544 200.441 214.453 200.555C214.43 200.578 214.43 200.6 214.407 200.6C214.338 200.692 214.247 200.806 214.178 200.898C214.132 200.943 214.11 201.012 214.064 201.058C214.018 201.126 213.972 201.195 213.927 201.263C213.881 201.332 213.835 201.423 213.789 201.492C213.766 201.537 213.721 201.583 213.698 201.652C213.675 201.697 213.652 201.743 213.629 201.789C213.583 201.88 213.538 201.949 213.492 202.04C213.469 202.063 213.469 202.086 213.446 202.109C213.377 202.223 213.332 202.337 213.286 202.452C213.286 202.452 213.286 202.474 213.263 202.474C213.217 202.589 213.149 202.726 213.103 202.84C213.103 202.863 213.103 202.863 213.08 202.886C213.034 203 212.988 203.137 212.943 203.251C212.943 203.274 212.943 203.274 212.92 203.297C212.874 203.411 212.828 203.548 212.805 203.663C212.805 203.686 212.805 203.708 212.782 203.708C212.737 203.823 212.714 203.96 212.691 204.074C212.691 204.097 212.691 204.12 212.668 204.12C212.645 204.234 212.622 204.371 212.599 204.485C212.599 204.508 212.599 204.531 212.599 204.531C212.577 204.645 212.554 204.783 212.554 204.897C212.554 204.92 212.554 204.92 212.554 204.942C212.531 205.057 212.531 205.194 212.531 205.308C212.531 205.377 212.531 205.422 212.531 205.491C212.531 205.56 212.531 205.628 212.531 205.697C212.531 205.765 212.531 205.857 212.531 205.925C212.531 205.994 212.531 206.085 212.554 206.154C212.554 206.245 212.576 206.314 212.576 206.405C212.576 206.474 212.599 206.519 212.599 206.588C212.599 206.588 212.622 206.702 212.645 206.931L213.149 210.084C213.446 209.924 214.064 209.559 214.087 209.536L219.99 212.735C219.99 212.735 218.572 213.558 218.503 213.604C218.434 213.649 218.366 213.695 218.297 213.741C218.228 213.786 218.16 213.832 218.091 213.878C218.022 213.924 217.954 213.969 217.908 214.015C217.885 214.038 217.862 214.061 217.839 214.084C217.748 214.175 217.633 214.244 217.542 214.335C217.45 214.426 217.336 214.518 217.244 214.609C217.222 214.632 217.222 214.632 217.199 214.655C217.107 214.746 217.016 214.838 216.924 214.929C216.901 214.952 216.901 214.952 216.878 214.975C216.787 215.066 216.718 215.158 216.627 215.272C216.604 215.295 216.604 215.318 216.581 215.318C216.512 215.409 216.421 215.523 216.352 215.615C216.306 215.66 216.283 215.729 216.238 215.775C216.192 215.843 216.146 215.912 216.1 215.98C216.055 216.049 216.009 216.14 215.963 216.209C215.94 216.255 215.894 216.3 215.872 216.369C215.849 216.415 215.826 216.46 215.803 216.506C215.757 216.597 215.711 216.666 215.666 216.757C215.643 216.78 215.643 216.803 215.62 216.826C215.551 216.94 215.505 217.054 215.46 217.169C215.46 217.169 215.46 217.192 215.437 217.192C215.391 217.306 215.322 217.443 215.277 217.557C215.277 217.58 215.277 217.58 215.254 217.603C215.208 217.717 215.162 217.854 215.116 217.969C215.116 217.991 215.116 217.991 215.094 218.014C215.048 218.128 215.002 218.266 214.979 218.38C214.979 218.403 214.979 218.426 214.956 218.426C214.91 218.54 214.888 218.677 214.865 218.791C214.865 218.814 214.865 218.837 214.842 218.837C214.819 218.951 214.796 219.088 214.773 219.203C214.773 219.225 214.773 219.248 214.773 219.248C214.75 219.363 214.727 219.5 214.727 219.614C214.727 219.637 214.727 219.637 214.727 219.66C214.727 219.705 214.727 219.751 214.705 219.82L233.01 332.826C233.102 333.42 235.436 337.26 234.909 336.94L233.262 335.546L235.207 347.566C235.298 348.16 237.632 352 237.106 351.68L231.637 346.903C230.447 345.898 229.669 344.527 229.418 342.996L209.396 219.454C209.304 218.86 209.144 217.946 209.144 217.946C209.144 217.877 209.121 217.831 209.121 217.763C209.121 217.717 209.121 217.649 209.098 217.603V217.58C209.098 217.557 209.098 217.534 209.098 217.534C209.098 217.466 209.098 217.374 209.076 217.306C209.076 217.237 209.076 217.192 209.076 217.123V217.1V217.077C209.076 217.009 209.076 216.94 209.076 216.872C209.076 216.803 209.076 216.734 209.076 216.643V216.62V216.597C209.076 216.552 209.076 216.506 209.076 216.46L207.176 204.737C207.085 204.143 206.925 203.229 206.925 203.229C206.925 203.16 206.902 203.114 206.902 203.046C206.902 203 206.902 202.931 206.879 202.886V202.863C206.879 202.84 206.879 202.817 206.879 202.817C206.879 202.749 206.879 202.657 206.856 202.589C206.856 202.52 206.856 202.474 206.856 202.406V202.383V202.36C206.902 202.269 206.902 202.177 206.902 202.109Z" fill="#FFFAFA"/>
<path d="M211.982 196.03L216.261 198.498C216.489 198.635 216.764 198.635 216.97 198.498L411.447 86.3601L412.523 85.7431C412.568 85.7202 412.637 85.6745 412.683 85.6516C412.751 85.6059 412.82 85.5831 412.889 85.5374C413.049 85.446 413.209 85.3774 413.369 85.3317C413.392 85.3317 413.392 85.3317 413.415 85.3089C413.575 85.2632 413.712 85.1946 413.873 85.1717C413.895 85.1717 413.896 85.1717 413.918 85.1717C414.079 85.126 414.216 85.1032 414.376 85.0803H414.399C414.536 85.0575 414.674 85.0575 414.811 85.0575C414.834 85.0575 414.857 85.0575 414.879 85.0575C415.017 85.0575 415.154 85.0575 415.268 85.0803C415.314 85.0803 415.337 85.0803 415.383 85.1032C415.474 85.126 415.566 85.126 415.657 85.1489C415.726 85.1717 415.818 85.1946 415.886 85.2175C415.955 85.2403 416.001 85.2632 416.069 85.286C416.23 85.3546 416.39 85.4231 416.527 85.4917L410.829 82.178C410.692 82.0866 410.532 82.0181 410.372 81.9724C410.349 81.9724 410.349 81.9495 410.326 81.9495H410.303C410.189 81.9038 410.051 81.881 409.914 81.8353H409.891C409.845 81.8353 409.822 81.8353 409.777 81.8124C409.708 81.8124 409.639 81.7896 409.571 81.7896C409.548 81.7896 409.548 81.7896 409.525 81.7896C409.479 81.7896 409.433 81.7896 409.388 81.7896C409.342 81.7896 409.296 81.7896 409.273 81.7896H409.25C409.159 81.7896 409.067 81.7896 408.976 81.7896H408.953C408.884 81.7896 408.793 81.8124 408.724 81.8124C408.701 81.8124 408.678 81.8124 408.655 81.8124C408.633 81.8124 408.61 81.8124 408.564 81.8353C408.541 81.8353 408.495 81.8353 408.472 81.8581C408.404 81.881 408.335 81.881 408.289 81.9038H408.266C408.266 81.9038 408.266 81.9038 408.244 81.9038C408.175 81.9267 408.083 81.9495 408.015 81.9724C407.946 81.9952 407.877 82.0181 407.809 82.0409C407.74 82.0638 407.672 82.0866 407.603 82.1095C407.534 82.1323 407.466 82.1552 407.397 82.2009C407.328 82.2238 407.26 82.2695 407.191 82.2923C407.122 82.3152 407.054 82.3609 406.985 82.4066C406.962 82.4294 406.688 82.5665 406.482 82.7037L406.184 82.8636C406.184 82.8636 406.184 82.8636 406.161 82.8636L212.004 194.819C211.501 195.047 211.501 195.733 211.982 196.03Z" fill="#EDE1E1"/>
<path d="M216.604 198.498C213.95 200.029 212.165 203.548 212.622 206.359L233.308 334.106C233.766 336.916 236.283 337.968 238.937 336.436L434.833 223.476C437.487 221.945 439.272 218.425 438.814 215.614L418.129 87.868C417.671 85.0571 415.154 84.0059 412.5 85.537L216.604 198.498Z" fill="#2B2B2B"/>
<path d="M223.606 206.725C221.088 208.142 219.372 211.227 219.784 213.581L238.502 320.76C238.914 323.114 241.294 323.891 243.811 322.451L429.616 217.329C432.133 215.912 433.849 212.827 433.437 210.473L414.719 103.294C414.307 100.94 411.927 100.163 409.41 101.603L223.606 206.725Z" fill="#545454"/>
<path d="M441.995 234.925L240.973 350.788" stroke="#463757" stroke-width="2.4286" stroke-miterlimit="10" stroke-linecap="round" stroke-linejoin="round"/>
<path d="M435.039 263.217C435.336 263.377 435.931 263.308 436.366 263.057L448.585 256.018C449.02 255.767 449.157 255.424 448.859 255.241L440.759 250.579C440.462 250.419 439.867 250.488 439.432 250.739L427.213 257.778C426.778 258.029 426.641 258.372 426.938 258.555L435.039 263.217Z" fill="#DFDFDF"/>
<path d="M420.851 284.241C421.149 284.401 421.744 284.355 422.178 284.081L434.397 277.043C434.832 276.791 434.947 276.448 434.649 276.266L426.549 271.604C426.251 271.444 425.656 271.512 425.222 271.764L413.003 278.802C412.545 279.054 412.431 279.396 412.728 279.556L420.851 284.241Z" fill="#DFDFDF"/>
<path d="M428.036 292.994C428.334 293.154 428.929 293.085 429.364 292.834L441.583 285.795C442.018 285.544 442.155 285.201 441.857 285.041L433.757 280.356C433.46 280.196 432.865 280.265 432.43 280.516L420.211 287.555C419.776 287.806 419.662 288.149 419.936 288.309L428.036 292.994Z" fill="#DFDFDF"/>
<path d="M447.418 294.662C447.715 294.822 448.31 294.753 448.745 294.502L460.964 287.463C461.399 287.212 461.513 286.869 461.239 286.709L453.138 282.047C452.841 281.887 452.246 281.956 451.811 282.207L439.592 289.246C439.157 289.497 439.043 289.84 439.317 290L447.418 294.662Z" fill="#DFDFDF"/>
<path d="M481.055 289.772C481.352 289.932 481.947 289.863 482.382 289.612L494.601 282.573C495.036 282.322 495.173 281.979 494.876 281.796L485.357 276.312C485.082 276.152 484.464 276.22 484.03 276.472L471.81 283.51C471.376 283.762 471.261 284.104 471.536 284.264L481.055 289.772Z" fill="#DFDFDF"/>
<path d="M459.981 301.906C460.278 302.066 460.987 301.952 461.559 301.609L477.577 292.377C478.149 292.057 478.378 291.646 478.103 291.463L468.584 285.978C468.31 285.818 467.577 285.955 467.005 286.275L450.988 295.508C450.416 295.851 450.187 296.262 450.462 296.422L459.981 301.906Z" fill="#DFDFDF"/>
<path d="M354.791 362.626C355.042 362.763 355.591 362.671 356.026 362.42L368.245 355.381C368.68 355.13 368.863 354.81 368.612 354.673L365.088 352.639C364.836 352.502 364.287 352.593 363.829 352.845L351.61 359.883C351.175 360.135 351.015 360.455 351.244 360.592L354.791 362.626Z" fill="#DFDFDF"/>
<path d="M338.452 372.292C338.703 372.43 339.252 372.338 339.687 372.087L351.906 365.048C352.341 364.797 352.524 364.477 352.273 364.34L348.749 362.306C348.497 362.169 347.948 362.26 347.49 362.512L335.271 369.55C334.836 369.801 334.676 370.121 334.905 370.259L338.452 372.292Z" fill="#DFDFDF"/>
<path d="M321.13 382.05C321.359 382.188 321.908 382.096 322.365 381.845L334.585 374.806C335.019 374.555 335.203 374.235 334.974 374.098L331.587 372.132C331.358 371.995 330.786 372.11 330.351 372.361L318.132 379.4C317.697 379.651 317.514 379.971 317.766 380.108L321.13 382.05Z" fill="#DFDFDF"/>
<path d="M331.793 368.568C332.022 368.705 332.571 368.613 333.029 368.362L345.248 361.323C345.683 361.072 345.866 360.752 345.637 360.615L342.251 358.649C342.022 358.512 341.45 358.627 341.015 358.878L328.796 365.917C328.361 366.168 328.178 366.488 328.43 366.625L331.793 368.568Z" fill="#DFDFDF"/>
<path d="M375.91 350.354C376.208 350.514 376.803 350.445 377.237 350.194L456.776 304.352C457.211 304.1 457.348 303.757 457.051 303.575L447.532 298.09C447.257 297.93 446.639 297.999 446.205 298.25L366.666 344.092C366.231 344.344 366.094 344.686 366.391 344.869L375.91 350.354Z" fill="#DFDFDF"/>
<path d="M462.177 298.889C462.199 298.889 462.245 298.889 462.314 298.844L471.65 293.45C471.696 293.428 471.719 293.382 471.719 293.382L471.124 293.039C471.101 293.039 471.055 293.039 470.986 293.085L461.65 298.478C461.604 298.501 461.582 298.547 461.582 298.547L462.177 298.889Z" fill="#DFDFDF"/>
<path d="M486.112 284.058C486.135 284.058 486.157 284.058 486.18 284.058L490.139 281.773C490.162 281.75 490.162 281.75 490.139 281.728L489.544 281.385C489.521 281.385 489.498 281.385 489.475 281.385L485.517 283.67C485.494 283.693 485.494 283.693 485.517 283.716L486.112 284.058Z" fill="#DFDFDF"/>
<path d="M430.668 304.329C430.965 304.489 431.56 304.42 431.995 304.169L444.214 297.13C444.649 296.879 444.786 296.536 444.489 296.353L436.388 291.691C436.091 291.531 435.496 291.6 435.061 291.851L422.842 298.89C422.407 299.141 422.293 299.484 422.567 299.667L430.668 304.329Z" fill="#DFDFDF"/>
<path d="M413.85 314.018C414.147 314.178 414.742 314.109 415.177 313.858L427.396 306.819C427.831 306.568 427.968 306.225 427.671 306.042L419.57 301.38C419.273 301.221 418.678 301.289 418.243 301.54L406.024 308.579C405.589 308.83 405.475 309.173 405.749 309.333L413.85 314.018Z" fill="#DFDFDF"/>
<path d="M397.008 323.708C397.305 323.868 397.9 323.799 398.335 323.548L410.554 316.509C410.989 316.258 411.103 315.915 410.829 315.755L402.728 311.093C402.431 310.933 401.836 311.002 401.401 311.253L389.182 318.292C388.747 318.543 388.633 318.886 388.907 319.046L397.008 323.708Z" fill="#DFDFDF"/>
<path d="M380.189 333.42C380.487 333.58 381.082 333.512 381.516 333.26L393.735 326.222C394.17 325.97 394.308 325.628 394.01 325.445L385.91 320.783C385.612 320.623 385.017 320.691 384.583 320.943L372.364 327.981C371.929 328.233 371.814 328.576 372.089 328.736L380.189 333.42Z" fill="#DFDFDF"/>
<path d="M363.348 343.11C363.645 343.27 364.24 343.201 364.675 342.95L376.894 335.911C377.329 335.66 377.443 335.317 377.169 335.157L369.068 330.495C368.771 330.335 368.176 330.404 367.741 330.655L355.522 337.694C355.087 337.945 354.95 338.288 355.248 338.471L363.348 343.11Z" fill="#DFDFDF"/>
<path d="M346.507 352.799C346.804 352.959 347.399 352.891 347.834 352.639L360.053 345.601C360.488 345.349 360.625 345.006 360.328 344.824L352.227 340.162C351.93 340.002 351.335 340.07 350.9 340.322L338.681 347.36C338.246 347.612 338.132 347.954 338.406 348.137L346.507 352.799Z" fill="#DFDFDF"/>
<path d="M308.614 374.646C308.911 374.806 309.506 374.738 309.941 374.486L343.235 355.29C343.669 355.039 343.784 354.696 343.509 354.536L335.409 349.874C335.111 349.714 334.516 349.783 334.082 350.034L300.788 369.23C300.353 369.482 300.239 369.825 300.513 370.007L308.614 374.646Z" fill="#DFDFDF"/>
<path d="M411.287 301.678C411.584 301.838 412.156 301.769 412.614 301.518L424.833 294.479C425.268 294.228 425.405 293.885 425.108 293.725L417.008 289.04C416.71 288.88 416.115 288.949 415.68 289.2L403.461 296.239C403.026 296.49 402.912 296.833 403.187 296.993L411.287 301.678Z" fill="#DFDFDF"/>
<path d="M394.445 312.327C394.743 312.487 395.338 312.418 395.772 312.167L407.991 305.128C408.426 304.877 408.541 304.534 408.266 304.374L400.166 299.69C399.868 299.53 399.273 299.598 398.839 299.85L386.619 306.888C386.185 307.14 386.07 307.482 386.345 307.642L394.445 312.327Z" fill="#DFDFDF"/>
<path d="M377.626 322.039C377.924 322.199 378.519 322.131 378.953 321.879L391.173 314.841C391.607 314.589 391.745 314.247 391.447 314.064L383.347 309.379C383.049 309.219 382.454 309.288 382.02 309.539L369.801 316.578C369.366 316.829 369.251 317.172 369.526 317.332L377.626 322.039Z" fill="#DFDFDF"/>
<path d="M360.785 331.729C361.082 331.889 361.677 331.82 362.112 331.569L374.331 324.53C374.766 324.279 374.903 323.936 374.606 323.776L366.506 319.091C366.208 318.931 365.613 319 365.178 319.251L352.959 326.29C352.524 326.541 352.41 326.884 352.685 327.044L360.785 331.729Z" fill="#DFDFDF"/>
<path d="M343.944 341.418C344.241 341.578 344.836 341.51 345.271 341.258L357.49 334.22C357.925 333.968 358.062 333.626 357.765 333.466L349.664 328.781C349.367 328.621 348.795 328.689 348.337 328.941L336.118 335.979C335.683 336.231 335.569 336.574 335.843 336.734L343.944 341.418Z" fill="#DFDFDF"/>
<path d="M327.125 351.131C327.423 351.291 328.018 351.223 328.453 350.971L340.672 343.933C341.106 343.681 341.244 343.338 340.946 343.156L332.846 338.471C332.548 338.311 331.954 338.379 331.519 338.631L319.3 345.669C318.865 345.921 318.75 346.264 319.025 346.424L327.125 351.131Z" fill="#DFDFDF"/>
<path d="M310.307 360.82C310.604 360.98 311.199 360.912 311.634 360.66L323.853 353.622C324.288 353.37 324.402 353.027 324.128 352.868L316.027 348.183C315.73 348.023 315.158 348.091 314.7 348.343L302.481 355.381C302.046 355.633 301.932 355.975 302.206 356.135L310.307 360.82Z" fill="#DFDFDF"/>
<path d="M404.102 293.908C404.399 294.068 404.994 293.999 405.429 293.748L417.648 286.709C418.083 286.458 418.197 286.115 417.9 285.955L409.8 281.293C409.502 281.133 408.907 281.202 408.472 281.453L396.253 288.492C395.818 288.743 395.704 289.086 395.979 289.246L404.102 293.908Z" fill="#DFDFDF"/>
<path d="M387.283 303.598C387.58 303.758 388.175 303.689 388.61 303.438L400.829 296.399C401.264 296.148 401.401 295.805 401.104 295.622L393.003 290.96C392.706 290.8 392.111 290.869 391.676 291.12L379.457 298.159C379.022 298.41 378.908 298.753 379.182 298.913L387.283 303.598Z" fill="#DFDFDF"/>
<path d="M370.441 313.287C370.739 313.447 371.333 313.379 371.768 313.127L383.988 306.089C384.422 305.837 384.537 305.494 384.239 305.334L376.139 300.672C375.841 300.513 375.246 300.581 374.812 300.832L362.592 307.871C362.158 308.122 362.02 308.465 362.318 308.625L370.441 313.287Z" fill="#DFDFDF"/>
<path d="M353.623 322.999C353.92 323.159 354.515 323.114 354.95 322.839L367.169 315.801C367.604 315.549 367.741 315.207 367.444 315.024L359.343 310.362C359.046 310.202 358.451 310.271 358.016 310.522L345.797 317.56C345.362 317.812 345.248 318.155 345.523 318.315L353.623 322.999Z" fill="#DFDFDF"/>
<path d="M336.782 332.689C337.079 332.849 337.674 332.78 338.109 332.552L350.328 325.513C350.763 325.262 350.877 324.919 350.602 324.736L342.502 320.074C342.205 319.914 341.633 319.983 341.175 320.234L328.956 327.273C328.521 327.524 328.407 327.867 328.681 328.027L336.782 332.689Z" fill="#DFDFDF"/>
<path d="M319.963 342.401C320.261 342.561 320.856 342.493 321.29 342.241L333.51 335.203C333.944 334.951 334.059 334.609 333.761 334.426L325.684 329.764C325.386 329.604 324.791 329.672 324.357 329.924L312.137 336.962C311.703 337.214 311.565 337.557 311.863 337.739L319.963 342.401Z" fill="#DFDFDF"/>
<path d="M303.122 352.091C303.419 352.251 304.014 352.182 304.449 351.931L316.668 344.892C317.103 344.641 317.217 344.298 316.943 344.115L308.842 339.453C308.545 339.293 307.95 339.362 307.515 339.613L295.296 346.652C294.861 346.903 294.747 347.246 295.022 347.406L303.122 352.091Z" fill="#DFDFDF"/>
<path d="M437.693 274.551C437.99 274.711 438.585 274.643 439.02 274.391L459.751 262.44C460.186 262.188 460.323 261.845 460.026 261.663L451.925 257.001C451.628 256.841 451.033 256.909 450.598 257.161L429.867 269.113C429.432 269.364 429.295 269.707 429.592 269.867L437.693 274.551Z" fill="#DFDFDF"/>
<path d="M275.159 355.359C275.457 355.519 276.052 355.45 276.487 355.199L297.218 343.247C297.653 342.995 297.767 342.653 297.493 342.493L289.392 337.831C289.095 337.671 288.5 337.739 288.065 337.991L267.334 349.943C266.899 350.194 266.762 350.537 267.059 350.72L275.159 355.359Z" fill="#DFDFDF"/>
<path d="M444.855 283.281C445.152 283.441 445.747 283.373 446.182 283.122L470.895 268.884C471.33 268.633 471.467 268.29 471.17 268.13L463.069 263.445C462.772 263.285 462.177 263.354 461.742 263.605L437.029 277.843C436.594 278.094 436.48 278.437 436.754 278.597L444.855 283.281Z" fill="#DFDFDF"/>
<path d="M464.236 284.973C464.534 285.133 465.129 285.064 465.563 284.813L482.039 275.329C482.473 275.077 482.588 274.735 482.313 274.552L474.213 269.89C473.915 269.73 473.32 269.798 472.886 270.05L456.41 279.534C455.976 279.785 455.861 280.128 456.136 280.311L464.236 284.973Z" fill="#DFDFDF"/>
<path d="M418.22 272.906C418.517 273.066 419.112 272.998 419.547 272.746L431.766 265.708C432.201 265.456 432.338 265.113 432.041 264.931L423.941 260.269C423.643 260.109 423.048 260.177 422.613 260.429L410.394 267.467C409.959 267.719 409.822 268.061 410.12 268.244L418.22 272.906Z" fill="#DFDFDF"/>
<path d="M401.447 282.573C401.745 282.733 402.34 282.665 402.775 282.413L414.994 275.375C415.429 275.123 415.543 274.78 415.268 274.598L407.168 269.936C406.871 269.776 406.276 269.844 405.841 270.096L393.622 277.134C393.187 277.386 393.05 277.728 393.347 277.911L401.447 282.573Z" fill="#DFDFDF"/>
<path d="M384.629 292.262C384.926 292.422 385.521 292.377 385.956 292.102L398.175 285.064C398.61 284.812 398.724 284.47 398.45 284.31L390.349 279.648C390.052 279.488 389.457 279.556 389.022 279.808L376.803 286.846C376.368 287.098 376.254 287.44 376.528 287.6L384.629 292.262Z" fill="#DFDFDF"/>
<path d="M367.81 301.952C368.108 302.112 368.703 302.043 369.137 301.792L381.357 294.754C381.791 294.502 381.929 294.159 381.631 293.977L373.531 289.315C373.233 289.155 372.638 289.223 372.204 289.475L359.984 296.513C359.55 296.765 359.412 297.107 359.71 297.29L367.81 301.952Z" fill="#DFDFDF"/>
<path d="M350.969 311.665C351.266 311.824 351.838 311.779 352.296 311.505L364.515 304.466C364.95 304.215 365.087 303.872 364.79 303.689L356.689 299.027C356.392 298.867 355.797 298.936 355.362 299.187L343.143 306.226C342.708 306.477 342.594 306.82 342.891 306.98L350.969 311.665Z" fill="#DFDFDF"/>
<path d="M334.127 321.354C334.425 321.514 335.02 321.445 335.454 321.194L347.674 314.155C348.108 313.904 348.223 313.561 347.925 313.401L339.825 308.739C339.528 308.579 338.933 308.648 338.498 308.899L326.279 315.938C325.844 316.189 325.729 316.532 326.004 316.692L334.127 321.354Z" fill="#DFDFDF"/>
<path d="M317.309 331.066C317.607 331.226 318.202 331.158 318.636 330.906L330.855 323.868C331.29 323.616 331.427 323.274 331.13 323.091L323.03 318.429C322.732 318.269 322.137 318.337 321.703 318.589L309.484 325.627C309.049 325.879 308.911 326.222 309.209 326.404L317.309 331.066Z" fill="#DFDFDF"/>
<path d="M300.49 340.756C300.787 340.916 301.382 340.847 301.817 340.596L314.059 333.557C314.494 333.306 314.608 332.963 314.311 332.803L306.21 328.141C305.913 327.981 305.318 328.05 304.883 328.301L292.641 335.34C292.206 335.591 292.092 335.934 292.389 336.094L300.49 340.756Z" fill="#DFDFDF"/>
<path d="M290.697 349.303C290.903 349.188 291.154 349.097 291.406 349.074C291.658 349.051 291.864 349.074 292.001 349.166L300.101 353.828C300.239 353.896 300.307 354.033 300.239 354.17C300.193 354.33 300.033 354.467 299.827 354.582L296.646 356.41L307.263 362.534C307.401 362.603 307.447 362.74 307.401 362.877C307.355 363.037 307.195 363.174 306.989 363.288L298.751 368.042C298.545 368.156 298.294 368.248 298.042 368.27C297.79 368.293 297.561 368.27 297.424 368.202L278.18 357.095C278.043 357.027 277.997 356.89 278.043 356.753C278.088 356.593 278.249 356.456 278.454 356.341L290.697 349.303Z" fill="#DFDFDF"/>
<path d="M466.433 281.042C466.456 281.042 466.502 281.042 466.571 280.996L475.906 275.603C475.952 275.58 475.975 275.534 475.975 275.534L475.38 275.191C475.357 275.191 475.311 275.191 475.243 275.237L465.907 280.63C465.861 280.653 465.838 280.699 465.838 280.699L466.433 281.042Z" fill="#DFDFDF"/>
<path d="M417.694 359.153L461.834 334.426C462.337 334.129 462.337 333.649 461.811 333.352L443.047 322.566C442.521 322.269 441.674 322.246 441.171 322.543L397.031 347.269C396.528 347.566 396.528 348.046 397.054 348.343L415.817 359.13C416.344 359.427 417.19 359.427 417.694 359.153Z" fill="#DFDFDF"/>
<path d="M253.444 309.494L415.566 216.003C418.243 214.449 419.936 210.29 419.341 206.679L405.246 120.319C404.651 116.708 402.019 115.063 399.342 116.594L237.22 210.084C234.543 211.638 232.85 215.798 233.445 219.408L247.54 305.769C248.112 309.356 250.767 311.025 253.444 309.494Z" fill="#FFFAFA"/>
<path d="M235.024 229.052L233.308 218.494C232.804 215.386 234.909 211.433 238.022 209.627L398.564 117.051C401.676 115.246 404.605 116.32 405.109 119.405L406.825 129.963L235.024 229.052Z" fill="#7C7C7C"/>
<path d="M266.83 202.223C267.127 203.526 268.272 204.074 269.393 203.412C270.514 202.772 271.178 201.195 270.88 199.892C270.583 198.59 269.439 198.041 268.317 198.704C267.219 199.344 266.555 200.921 266.83 202.223Z" fill="white"/>
<path d="M258.662 206.931C258.959 208.233 260.103 208.782 261.224 208.119C262.346 207.479 263.009 205.902 262.712 204.6C262.414 203.297 261.27 202.749 260.149 203.412C259.051 204.051 258.387 205.628 258.662 206.931Z" fill="white"/>
<path d="M254.385 211.126C254.904 209.716 254.488 208.266 253.456 207.887C252.424 207.508 251.167 208.344 250.648 209.754C250.129 211.163 250.545 212.613 251.577 212.992C252.609 213.371 253.866 212.536 254.385 211.126Z" fill="white"/>
<path d="M766.169 342.356L767.999 555H383.324L766.169 342.356Z" fill="#F8F8F8"/>
<path d="M765.551 315.709L760.952 372.361L458.928 555H380.167L765.551 315.709Z" fill="#EAEAEA"/>
<path d="M373.554 169.338L377.421 172.606L381.174 163.465" stroke="white" stroke-width="2.9823" stroke-miterlimit="10" stroke-linecap="round" stroke-linejoin="round"/>
<path opacity="0.34" d="M440.484 303.849C440.873 301.404 445.793 299.415 452.223 297.884C450.003 297.176 448.424 295.759 448.127 293.268C448.127 293.268 451.971 291.988 456.776 290.777C455.815 289.977 455.198 288.857 455.015 287.372C455.015 287.372 467.348 283.259 475.403 282.916C478.194 282.664 484.556 282.413 492.313 284.333C500.116 286.275 502.77 289.566 520.069 300.078L611.37 320.326L599.356 364.957L509.04 325.559L497.782 326.976L476.616 321.742C476.616 321.742 464.717 322.588 464.007 317.629C463.206 312.099 477.119 314.361 477.119 314.361L487.347 315.709C490.276 315.686 491.603 315.732 492.084 312.921C492.381 311.253 490.253 310.11 490.185 309.79C490.025 309.059 465.449 304.923 465.449 304.923C465.449 304.923 438.905 313.607 440.484 303.849Z" fill="#DFDFDF"/>
<path opacity="0.34" d="M474.831 450.495C422.407 444.05 329.894 383.445 329.894 383.445L356.049 362.101L467.211 410.023L474.831 450.495Z" fill="#DFDFDF"/>
<path d="M532.518 438.543C519.658 449.992 515.836 457.51 496.981 455.042C472.429 451.82 390.144 406.595 368.566 389.684C360.122 383.056 366.804 361.369 376.849 365.277C400.83 374.624 469.683 404.218 492.199 407.692C494.167 407.989 513.068 406.595 513.983 406.069C515.722 405.109 550.32 422.706 532.518 438.543Z" fill="#FCE0E0"/>
<path d="M666.402 272.632L634.779 214.266C630.294 201.629 625.878 191.482 613.246 195.984L609.494 197.31C596.84 201.789 584.094 216.14 588.579 228.778L614.207 290.891C618.715 303.506 670.887 285.27 666.402 272.632Z" fill="#FCE0E0"/>
<path d="M465.449 289.84C465.449 289.84 438.905 298.547 440.484 288.789C440.873 286.344 445.793 284.356 452.223 282.825C450.003 282.116 448.424 280.699 448.127 278.208C448.127 278.208 451.971 276.929 456.777 275.717C455.815 274.918 455.198 273.798 455.015 272.312C455.015 272.312 467.348 268.199 475.403 267.856C478.194 267.605 484.556 267.353 492.313 269.273C500.299 271.261 502.907 274.666 521.396 285.795C521.396 285.795 520.71 286.413 519.635 287.281C523.067 288.949 525.218 292.583 524.897 296.513L524.852 296.97C524.28 303.758 519.04 309.22 512.289 310.065L497.736 311.893L476.57 306.66C476.57 306.66 464.671 307.506 463.962 302.547C463.161 297.016 477.073 299.279 477.073 299.279L487.302 300.627C490.231 300.604 491.558 300.65 492.038 297.839C492.336 296.171 490.208 295.028 490.139 294.708C490.025 293.954 465.449 289.84 465.449 289.84Z" fill="#FCE0E0"/>
<path d="M452.223 282.802L466.89 279.146L492.221 286.984" stroke="#F2C8C8" stroke-width="3.6829" stroke-miterlimit="10"/>
<path d="M456.776 275.718C457.623 275.009 471.65 271.398 471.65 271.398L496.981 279.237" stroke="#F2C8C8" stroke-width="3.6829" stroke-miterlimit="10"/>
<path d="M520.092 285.018L611.393 305.266L599.357 349.874L506.065 309.173L520.092 285.018Z" fill="#FCE0E0"/>
<path d="M577.778 302.135C590.364 296.49 601.141 289.863 611.072 282.87C668.141 276.357 664.937 249.323 664.937 249.323C691.778 238.719 711.366 256.75 725.85 297.93C732.738 317.515 751.066 411.531 751.066 411.531C751.066 411.554 762.233 539.186 750.883 543.231L595.649 552.623C595.649 552.623 600.317 505.455 597.366 472.113C595.855 454.974 573.156 415.004 566.452 403.829C565.994 403.075 558.923 414.57 558.694 413.976C554.484 403.03 555.674 392.152 561.166 380.725C550.686 358.193 539.633 319.275 577.778 302.135Z" fill="#EEEEEE"/>
<path d="M611.621 363.54L535.286 439.48C510.573 457.556 477.554 416.947 496.706 400.402L558.717 315.71C570.525 301.244 593.293 300.947 602.812 311.573C612.743 322.634 623.085 350.948 611.621 363.54Z" fill="#EEEEEE"/>
<path d="M324.677 329.17C324.608 329.239 323.212 330.884 323.99 333.329C323.99 333.352 323.99 333.375 324.013 333.375C325.432 337.763 332.686 341.602 345.614 344.847C346.049 345.053 347.514 346.104 349.527 347.566C345.134 346.812 339.894 347.338 336.278 349.12C321.931 356.205 316.851 362.261 316.645 362.512L316.371 362.855L316.439 363.289C316.462 363.449 316.737 364.934 318.544 365.757C322.045 367.357 328.658 365.117 338.178 359.13C340.74 357.53 344.035 357.324 348.017 358.513C345.385 358.193 342.823 358.604 340.74 359.678C334.242 363.083 322.228 373.001 321.725 373.436L321.245 373.824L321.382 374.418C321.405 374.578 321.794 375.904 323.51 376.566C324.105 376.795 324.791 376.909 325.569 376.932C325.363 377.046 325.249 377.115 325.249 377.115L324.379 377.618L324.906 378.486C328.75 384.885 335.844 381 341.038 378.166C341.701 377.8 342.365 377.435 342.983 377.115C345.408 375.835 349.115 374.921 351.518 376.544C358.177 381.023 362.753 384.77 364.401 387.124C364.813 387.696 369.183 391.741 369.755 392.38C380.693 404.424 395.589 390.872 392.134 374.738C379.206 362.055 363.371 340.756 353.097 337.763L352.96 337.671L325.112 328.599L324.677 329.17Z" fill="#FCE0E0"/>
<path d="M326.782 376.543L348.612 365.208L359.87 371.219" stroke="#F2C8C8" stroke-width="3.6829" stroke-miterlimit="10"/>
<path d="M347.971 358.536L356.048 362.101" stroke="#F2C8C8" stroke-width="3.6829" stroke-miterlimit="10"/>
<path d="M590.021 296.079C639.95 286.161 670.681 319.457 675.051 246.649C675.051 246.649 661.391 245.278 657.18 252.591C649.812 265.434 649.286 272.495 628.509 272.335C617.754 272.267 603.979 271.764 600.844 277.043L590.021 296.079Z" fill="white"/>
<path d="M559.999 414.456L535.286 439.023C526.316 445.581 516.248 444.416 507.987 439.457C524.943 438.314 533.364 426.842 552.951 407.851C556.132 404.789 559.999 414.456 559.999 414.456Z" fill="#D9D9D9"/>
<path d="M555.331 155.695C555.331 155.695 544.142 169.566 546.979 184.878C547.528 187.803 549.038 195.047 549.862 198.406C551.807 206.428 549.862 206.862 547.482 214.975C547.208 215.889 545.217 218.86 542.906 224.733C542.494 225.761 542.517 226.927 542.975 227.955C543.936 230.126 546.224 233.348 551.533 232.548C553.844 232.206 554.278 235.748 555.514 240.821C557.459 248.842 560.891 257.001 565.262 259.674C573.66 264.839 602.949 254.167 602.949 254.167L611.484 201.72L555.331 155.695Z" fill="#FCE0E0"/>
<path d="M604.849 268.107C604.849 268.107 609.815 254.419 607.275 248.134C605.375 251.265 603.018 254.007 599.7 255.676L604.849 268.107Z" fill="#F2C8C8"/>
<path d="M568.123 408.674C568.123 408.674 594.644 453.923 596.314 467.063C597.984 480.203 595.696 552.623 595.696 552.623L611.416 552.509L633.749 484.66L597.733 376.498C595.49 369.756 586.086 379.949 580.823 384.748L551.693 408.949L560 414.479L568.123 408.674Z" fill="#D9D9D9"/>
<path d="M556.613 227.292C556.613 227.292 557.116 230.126 554.896 231.909" stroke="#F2C8C8" stroke-width="3.9584" stroke-miterlimit="10" stroke-linecap="round" stroke-linejoin="round"/>
<path d="M598.075 374.098C598.075 374.098 630.545 329.513 590.021 297.93" stroke="#D9D9D9" stroke-width="4.8571" stroke-miterlimit="10" stroke-linecap="round" stroke-linejoin="round"/>
<path d="M638.898 226.493C643.405 225.03 646.563 220.963 646.815 216.232C647.57 202.406 647.959 173.566 639.859 155.627C628.898 131.357 568.466 165.248 568.466 165.248L607.572 228.115C608.212 229.144 609.334 230.172 610.707 231.063C616.45 234.857 623.91 234.925 629.928 231.543L638.898 226.493Z" fill="#2B2B2B"/>
<path d="M547.757 189.037C547.895 190.614 526.912 149.959 568.672 133.916C635.694 108.184 642.033 163.602 642.033 163.602C642.033 163.602 616.954 187.597 580.525 174.48C571.875 181.404 553.203 182.021 547.78 177.565C547.803 177.565 547.002 180.056 547.757 189.037Z" fill="#2B2B2B"/>
<path d="M605.093 224.099C610.708 223.618 614.694 216.642 613.996 208.519C613.298 200.396 608.18 194.201 602.564 194.683C596.949 195.164 592.962 202.139 593.661 210.262C594.359 218.386 599.477 224.58 605.093 224.099Z" fill="#FCE0E0"/>
<path d="M620.34 513.477L596.725 507.992L596.656 471.702L487.851 537.495L553.248 555H611.393L620.34 513.477Z" fill="#2A2A2A"/>
<path d="M675.601 515.122C641.896 521.315 607.663 528.194 589.357 515.122C580.937 509.477 588.007 502.69 593.591 505.547C616.771 514.322 644.092 508.449 675.578 504.107C678.324 504.107 680.567 506.347 680.567 509.089V510.117C680.59 512.905 678.347 515.122 675.601 515.122Z" fill="black"/>
<path d="M540.915 433.789C540.915 433.789 509.978 409.931 506.065 395.054C502.175 380.177 491.992 397.065 491.992 397.065C491.992 397.065 484.143 418.661 495.47 430.636C506.82 442.61 519.542 463.429 540.915 433.789Z" fill="#D9D9D9"/>
<path opacity="0.34" d="M366.117 506.187L399.274 487.082C401.356 485.871 401.104 483.745 398.679 482.351L335.913 446.153C333.487 444.759 329.803 444.599 327.721 445.81L294.564 464.915C292.482 466.126 292.734 468.251 295.159 469.645L357.925 505.844C360.351 507.238 364.035 507.375 366.117 506.187Z" fill="#D7D7D7"/>
<path d="M286.532 467.885V467.84V467.817L286.669 464.846L289.003 465.235L321.107 446.724C323.189 445.513 326.896 445.673 329.299 447.067L390.692 482.466L394.216 483.06L394.079 485.939C394.079 486.716 393.621 487.447 392.683 487.996L359.526 507.101C357.444 508.312 353.737 508.152 351.335 506.758L288.568 470.559C287.195 469.828 286.509 468.822 286.532 467.885Z" fill="#FFFAFA"/>
<path d="M359.616 504.244L392.773 485.139C394.855 483.928 394.604 481.803 392.178 480.409L329.412 444.21C326.986 442.816 323.302 442.656 321.22 443.867L288.063 462.972C285.981 464.183 286.233 466.309 288.658 467.703L351.424 503.901C353.85 505.295 357.534 505.455 359.616 504.244Z" fill="black"/>
<path d="M351.151 503.764L392.477 480.591L328.956 443.981L288.202 467.428L351.151 503.764Z" fill="#2B2B2B"/>
<path opacity="0.34" d="M235.116 534.501L222.965 527.485L213.904 522.252C212.004 521.155 207.748 520.538 204.224 522.572C202.028 523.852 201.685 525.383 201.685 526.183C201.685 527.44 202.44 528.651 203.675 529.359L218.091 537.678C218.251 537.769 218.434 537.815 218.617 537.815C218.984 537.815 219.327 537.632 219.51 537.289C219.807 536.786 219.624 536.146 219.121 535.872L204.705 527.554C204.11 527.211 203.767 526.685 203.767 526.183C203.767 525.566 204.293 524.926 205.254 524.377C208.023 522.778 211.432 523.235 212.851 524.057L214.453 524.994C213.629 525.177 212.828 525.451 212.119 525.863C210.792 526.64 210.014 527.737 210.014 528.879C210.014 529.908 210.586 530.799 211.661 531.393L227.107 540.306C228.022 540.831 229.212 541.083 230.448 541.083C231.912 541.083 233.422 540.717 234.635 540.031C235.962 539.254 236.74 538.157 236.74 537.015C236.74 536.009 236.168 535.095 235.116 534.501ZM233.605 538.226C232.027 539.14 229.487 539.254 228.159 538.5L212.714 529.588C212.485 529.451 212.119 529.199 212.119 528.856C212.119 528.582 212.393 528.102 213.171 527.645C213.744 527.325 214.43 527.097 215.139 526.983C215.231 527.12 215.345 527.257 215.505 527.325L229.166 535.21C229.326 535.301 229.509 535.347 229.693 535.347C230.059 535.347 230.402 535.164 230.585 534.821C230.676 534.661 230.722 534.501 230.722 534.341L234.086 536.284C234.315 536.421 234.681 536.672 234.681 537.015C234.658 537.289 234.383 537.792 233.605 538.226Z" fill="#00D254" fill-opacity="0.64"/>
<path d="M228.617 532.216C228.434 532.216 228.251 532.17 228.091 532.079L214.43 524.195C213.926 523.898 213.766 523.281 214.041 522.778C214.338 522.275 214.956 522.115 215.46 522.389L229.12 530.274C229.624 530.571 229.784 531.188 229.509 531.69C229.326 532.01 228.983 532.216 228.617 532.216Z" fill="#00D254" fill-opacity="0.64"/>
<path d="M229.418 537.929C228.182 537.929 226.992 537.678 226.077 537.152L210.631 528.24C209.579 527.623 208.984 526.731 208.984 525.726C208.984 524.583 209.762 523.486 211.089 522.709C213.332 521.407 216.627 521.292 218.617 522.435L234.063 531.348C235.116 531.965 235.711 532.856 235.711 533.861C235.711 535.004 234.933 536.101 233.605 536.878C232.393 537.586 230.86 537.929 229.418 537.929ZM215.299 523.738C214.201 523.738 213.011 524.012 212.142 524.515C211.364 524.972 211.089 525.452 211.089 525.726C211.089 526.046 211.455 526.32 211.684 526.457L227.13 535.37C228.457 536.124 230.997 536.01 232.576 535.095C233.354 534.638 233.628 534.159 233.628 533.884C233.628 533.564 233.262 533.29 233.033 533.153L217.588 524.24C216.993 523.898 216.169 523.738 215.299 523.738Z" fill="#00D254" fill-opacity="0.64"/>
<path d="M217.565 534.661C217.382 534.661 217.199 534.616 217.039 534.524L202.623 526.206C201.387 525.498 200.632 524.286 200.632 523.029C200.632 522.23 200.952 520.698 203.172 519.419C206.696 517.385 210.952 518.002 212.851 519.099L227.267 527.417C227.77 527.714 227.931 528.331 227.656 528.834C227.359 529.337 226.741 529.497 226.237 529.223L211.821 520.904C210.403 520.081 206.993 519.624 204.224 521.224C203.263 521.773 202.737 522.412 202.737 523.029C202.737 523.532 203.103 524.058 203.675 524.401L218.091 532.719C218.595 533.016 218.755 533.633 218.48 534.136C218.274 534.479 217.908 534.661 217.565 534.661Z" fill="#00D254" fill-opacity="0.64"/>
<path d="M232.484 482.877L315.935 434.772V429.882L198.686 367.174L115.257 410.411V415.279L232.484 482.877Z" fill="#2B2B2B"/>
<path d="M232.484 478.009L315.935 429.881L198.686 362.283L115.257 410.411L232.484 478.009Z" fill="#545454"/>
<path d="M143.472 534.615L229.509 485.002V479.975L108.622 415.324L22.584 459.887V464.937L143.472 534.615Z" fill="#2B2B2B"/>
<path d="M143.472 529.588L229.509 479.975L108.622 410.297L22.584 459.887L143.472 529.588Z" fill="#545454"/>
<path d="M111.139 419.67H114.457V417.454H111.139V419.67Z" fill="#DD4078"/>
<path d="M146.081 522.526C146.081 522.526 183.768 501.958 219.67 479.243C219.808 479.152 219.67 471.999 219.67 471.999C201.342 460.389 113.359 416.421 113.359 416.421L38.9683 459.635L146.081 522.526Z" fill="#DDDDDD"/>
<path d="M146.081 515.282C146.081 515.282 183.768 494.714 219.67 471.999C220.814 471.153 113.359 409.2 113.359 409.2L38.9683 452.414L146.081 515.282Z" fill="white"/>
<path d="M232.278 471.976C232.278 471.976 269.965 451.409 305.868 428.693C306.005 428.602 305.868 421.449 305.868 421.449C287.539 409.84 199.556 365.871 199.556 365.871L125.166 401.841V409.085L232.278 471.976Z" fill="#DDDDDD"/>
<path d="M232.278 464.755C232.278 464.755 269.965 444.187 305.867 421.472C307.012 420.626 199.556 358.672 199.556 358.672L125.166 401.887L232.278 464.755Z" fill="white"/>
<path d="M41.2103 451.089L29.792 457.579L47.4801 467.429L71.0033 468.411L41.2103 451.089Z" fill="#FFFAFA"/>
<path d="M71.6894 452.871L114.548 428.168L105.006 422.66L62.1475 447.364L71.6894 452.871Z" stroke="#DEDEDE" stroke-width="2.7858" stroke-miterlimit="10" stroke-linecap="round" stroke-linejoin="round"/>
<path d="M147.728 502.21L154.913 498.073L147.773 493.96L140.588 498.096L147.728 502.21Z" stroke="#DEDEDE" stroke-width="2.7858" stroke-miterlimit="10" stroke-linecap="round" stroke-linejoin="round"/>
<path d="M184.865 472.616L151.709 491.446" stroke="#DEDEDE" stroke-width="2.7858" stroke-miterlimit="10" stroke-linecap="round" stroke-linejoin="round"/>
<path d="M176.148 484.796L157.155 495.56" stroke="#DEDEDE" stroke-width="2.7858" stroke-miterlimit="10" stroke-linecap="round" stroke-linejoin="round"/>
<path d="M135.189 494.874L142.351 490.715L135.234 486.602L128.049 490.761L135.189 494.874Z" stroke="#DEDEDE" stroke-width="2.7858" stroke-miterlimit="10" stroke-linecap="round" stroke-linejoin="round"/>
<path d="M172.327 465.28L139.17 484.088" stroke="#DEDEDE" stroke-width="2.7858" stroke-miterlimit="10" stroke-linecap="round" stroke-linejoin="round"/>
<path d="M163.609 477.461L144.616 488.224" stroke="#DEDEDE" stroke-width="2.7858" stroke-miterlimit="10" stroke-linecap="round" stroke-linejoin="round"/>
<path d="M122.649 487.515L129.811 483.379L122.672 479.266L115.51 483.402L122.649 487.515Z" stroke="#DEDEDE" stroke-width="2.7858" stroke-miterlimit="10" stroke-linecap="round" stroke-linejoin="round"/>
<path d="M159.764 457.944L126.607 476.752" stroke="#DEDEDE" stroke-width="2.7858" stroke-miterlimit="10" stroke-linecap="round" stroke-linejoin="round"/>
<path d="M151.046 470.125L132.077 480.889" stroke="#DEDEDE" stroke-width="2.7858" stroke-miterlimit="10" stroke-linecap="round" stroke-linejoin="round"/>
<path d="M110.086 480.18L117.271 476.044L110.132 471.931L102.97 476.067L110.086 480.18Z" stroke="#DEDEDE" stroke-width="2.7858" stroke-miterlimit="10" stroke-linecap="round" stroke-linejoin="round"/>
<path d="M147.224 450.609L114.068 469.417" stroke="#DEDEDE" stroke-width="2.7858" stroke-miterlimit="10" stroke-linecap="round" stroke-linejoin="round"/>
<path d="M138.506 462.767L119.537 473.553" stroke="#DEDEDE" stroke-width="2.7858" stroke-miterlimit="10" stroke-linecap="round" stroke-linejoin="round"/>
<path d="M97.547 472.845L104.732 468.708L97.5928 464.595L90.4077 468.731L97.547 472.845Z" stroke="#DEDEDE" stroke-width="2.7858" stroke-miterlimit="10" stroke-linecap="round" stroke-linejoin="round"/>
<path d="M134.685 443.273L101.529 462.081" stroke="#DEDEDE" stroke-width="2.7858" stroke-miterlimit="10" stroke-linecap="round" stroke-linejoin="round"/>
<path d="M125.967 455.431L106.998 466.195" stroke="#DEDEDE" stroke-width="2.7858" stroke-miterlimit="10" stroke-linecap="round" stroke-linejoin="round"/>
<path d="M85.0074 465.508L92.1925 461.372L85.0532 457.259L77.8682 461.395L85.0074 465.508Z" stroke="#DEDEDE" stroke-width="2.7858" stroke-miterlimit="10" stroke-linecap="round" stroke-linejoin="round"/>
<path d="M122.146 435.915L88.9893 454.745" stroke="#DEDEDE" stroke-width="2.7858" stroke-miterlimit="10" stroke-linecap="round" stroke-linejoin="round"/>
<path d="M113.427 448.095L94.4346 458.859" stroke="#DEDEDE" stroke-width="2.7858" stroke-miterlimit="10" stroke-linecap="round" stroke-linejoin="round"/>
<path d="M159.375 401.681L199.854 378.326L190.838 373.138L150.359 396.494L159.375 401.681Z" stroke="#DEDEDE" stroke-width="2.7858" stroke-miterlimit="10" stroke-linecap="round" stroke-linejoin="round"/>
<path d="M174.111 410.297L214.59 386.941L205.574 381.731L165.095 405.086L174.111 410.297Z" stroke="#DEDEDE" stroke-width="2.7858" stroke-miterlimit="10" stroke-linecap="round" stroke-linejoin="round"/>
<path d="M188.847 418.889L229.348 395.534L220.333 390.346L179.831 413.702L188.847 418.889Z" stroke="#DEDEDE" stroke-width="2.7858" stroke-miterlimit="10" stroke-linecap="round" stroke-linejoin="round"/>
<path d="M203.583 427.504L244.085 404.149L235.069 398.938L194.567 422.294L203.583 427.504Z" stroke="#DEDEDE" stroke-width="2.7858" stroke-miterlimit="10" stroke-linecap="round" stroke-linejoin="round"/>
<path d="M218.319 436.097L258.821 412.742L249.805 407.554L209.304 430.91L218.319 436.097Z" stroke="#DEDEDE" stroke-width="2.7858" stroke-miterlimit="10" stroke-linecap="round" stroke-linejoin="round"/>
<path d="M233.056 444.713L273.558 421.357L264.542 416.147L224.04 439.502L233.056 444.713Z" stroke="#DEDEDE" stroke-width="2.7858" stroke-miterlimit="10" stroke-linecap="round" stroke-linejoin="round"/>
<path d="M216.764 452.666C217.825 452.666 218.686 452.185 218.686 451.592C218.686 450.998 217.825 450.518 216.764 450.518C215.702 450.518 214.841 450.998 214.841 451.592C214.841 452.185 215.702 452.666 216.764 452.666Z" fill="#EDE1E1"/>
<path d="M196.421 461.852C196.421 462.446 197.291 462.926 198.344 462.926C199.396 462.926 200.266 462.446 200.266 461.852C200.266 461.258 199.396 460.778 198.344 460.778C197.291 460.778 196.421 461.258 196.421 461.852Z" fill="#EDE1E1"/>
<path d="M216.764 451.249C216.764 445.421 212.645 443.067 207.565 446.015C202.486 448.941 198.367 456.048 198.367 461.875" stroke="#433878" stroke-width="2.7858" stroke-miterlimit="10" stroke-linecap="round" stroke-linejoin="round"/>
<path d="M199.076 441.948C199.076 442.542 199.945 443.022 200.998 443.022C202.051 443.022 202.92 442.542 202.92 441.948C202.92 441.353 202.051 440.874 200.998 440.874C199.922 440.874 199.076 441.353 199.076 441.948Z" fill="#EDE1E1"/>
<path d="M182.577 453.305C183.639 453.305 184.5 452.824 184.5 452.231C184.5 451.638 183.639 451.157 182.577 451.157C181.516 451.157 180.655 451.638 180.655 452.231C180.655 452.824 181.516 453.305 182.577 453.305Z" fill="#EDE1E1"/>
<path d="M200.998 441.605C200.998 435.777 196.879 433.423 191.799 436.371C186.719 439.297 182.6 446.404 182.6 452.231" stroke="#433878" stroke-width="2.7858" stroke-miterlimit="10" stroke-linecap="round" stroke-linejoin="round"/>
<path d="M185.209 433.378C186.27 433.378 187.131 432.897 187.131 432.304C187.131 431.711 186.27 431.23 185.209 431.23C184.147 431.23 183.287 431.711 183.287 432.304C183.287 432.897 184.147 433.378 185.209 433.378Z" fill="#EDE1E1"/>
<path d="M166.788 443.662C167.85 443.662 168.71 443.181 168.71 442.588C168.71 441.995 167.85 441.514 166.788 441.514C165.727 441.514 164.866 441.995 164.866 442.588C164.866 443.181 165.727 443.662 166.788 443.662Z" fill="#EDE1E1"/>
<path d="M185.209 431.961C185.209 426.134 181.09 423.78 176.01 426.728C170.93 429.653 166.811 436.76 166.811 442.588" stroke="#433878" stroke-width="2.7858" stroke-miterlimit="10" stroke-linecap="round" stroke-linejoin="round"/>
<path d="M169.008 423.871C170.07 423.871 170.93 423.39 170.93 422.797C170.93 422.204 170.07 421.723 169.008 421.723C167.947 421.723 167.086 422.204 167.086 422.797C167.086 423.39 167.947 423.871 169.008 423.871Z" fill="#EDE1E1"/>
<path d="M150.588 434.132C151.649 434.132 152.51 433.651 152.51 433.058C152.51 432.465 151.649 431.984 150.588 431.984C149.526 431.984 148.666 432.465 148.666 433.058C148.666 433.651 149.526 434.132 150.588 434.132Z" fill="#EDE1E1"/>
<path d="M169.008 422.431C169.008 416.604 164.889 414.25 159.809 417.198C154.729 420.146 150.61 427.23 150.61 433.058" stroke="#433878" stroke-width="2.7858" stroke-miterlimit="10" stroke-linecap="round" stroke-linejoin="round"/>
<path d="M153.105 414.639C154.166 414.639 155.027 414.158 155.027 413.565C155.027 412.972 154.166 412.491 153.105 412.491C152.043 412.491 151.183 412.972 151.183 413.565C151.183 414.158 152.043 414.639 153.105 414.639Z" fill="#EDE1E1"/>
<path d="M132.762 423.848C132.762 424.442 133.632 424.922 134.684 424.922C135.737 424.922 136.606 424.442 136.606 423.848C136.606 423.254 135.737 422.774 134.684 422.774C133.632 422.751 132.762 423.254 132.762 423.848Z" fill="#EDE1E1"/>
<path d="M153.104 413.222C153.104 407.394 148.986 405.041 143.906 407.989C138.826 410.914 134.707 418.021 134.707 423.848" stroke="#433878" stroke-width="2.7858" stroke-miterlimit="10" stroke-linecap="round" stroke-linejoin="round"/>
<path opacity="0.34" d="M265.961 399.898C266.075 400.515 266.029 401.11 265.869 401.635C265.869 401.658 265.869 401.658 265.869 401.681C265.503 402.869 264.519 403.738 263.26 403.829L261.91 403.943L189.03 409.679C188.618 409.702 188.183 409.657 187.794 409.519L179.122 408.445L173.768 407.531L178.527 406.114L186.605 402.732C186.948 402.549 187.337 402.412 187.772 402.389L256.876 396.95L261.979 396.539C262.322 396.516 262.665 396.539 262.986 396.63C263.215 396.676 263.421 396.768 263.627 396.859C263.833 396.95 264.038 397.065 264.221 397.202C264.405 397.339 264.588 397.499 264.771 397.659C264.862 397.75 264.931 397.842 265.022 397.933C265.503 398.459 265.846 399.144 265.961 399.898Z" fill="#727272"/>
<path d="M181.708 404.332C181.937 406.32 183.676 407.828 185.575 407.691L262.712 402.161C264.611 402.024 266.007 400.287 265.778 398.299C265.549 396.31 263.81 394.802 261.911 394.939L184.774 400.47C182.852 400.607 181.479 402.344 181.708 404.332Z" fill="#00AF46"/>
<path d="M181.708 404.332L265.778 398.299C265.549 396.31 263.81 394.802 261.911 394.939L184.774 400.47C182.852 400.607 181.479 402.344 181.708 404.332Z" fill="#00D254"/>
<path d="M185.575 407.691L175.415 406.457L174.958 404.126L183.538 400.812L186.124 401.567L184.888 403.441L186.65 404.903L185.323 406.091L187.176 406.891L185.575 407.691Z" fill="#D4B3B3"/>
<path d="M175.209 405.406L174.958 404.126L183.538 400.812L186.124 401.567L184.888 403.441L186.65 404.903L175.209 405.406Z" fill="#F7D1D2"/>
<path d="M169.923 405.52L175.415 406.457L174.958 404.126L169.923 405.52Z" fill="#56446B"/>
<path d="M265.754 398.299C265.983 400.287 264.587 402.024 262.688 402.161L257.357 402.549C257.768 400.744 257.86 398.207 256.556 395.328L261.864 394.939C263.809 394.802 265.548 396.31 265.754 398.299Z" fill="#7C64BA"/>
<path d="M255.686 402.663C255.686 402.663 256.968 398.71 254.451 395.465" stroke="#FFFAFA" stroke-width="1.8831" stroke-miterlimit="10" stroke-linecap="round" stroke-linejoin="round"/>
<path d="M775.634 549.513L615 549.215C615.16 546.519 615.664 542.977 616.281 540.28L645.662 416.259C650.971 393.794 667.195 371.33 686.21 360.064L775.611 307V549.513H775.634Z" fill="#545454"/>
<path d="M767.954 555H654.343L672.672 438.703C680.68 404.881 728.962 383.468 757.611 366.511L767.954 360.729C768.045 362.101 767.954 555 767.954 555Z" fill="#2A2A2A"/>
<path d="M318.133 473.233L342.983 458.905C344.127 458.242 343.99 457.077 342.662 456.3L334.493 451.592C333.166 450.815 331.153 450.746 329.986 451.409L305.135 465.738C303.991 466.4 304.129 467.566 305.456 468.343L313.625 473.05C314.952 473.827 316.966 473.919 318.133 473.233Z" fill="white"/>
<path d="M315.071 470.452C318.168 470.435 320.67 468.969 320.66 467.177C320.65 465.384 318.132 463.945 315.036 463.962C311.94 463.979 309.438 465.445 309.448 467.237C309.458 469.029 311.975 470.469 315.071 470.452Z" fill="#D7D7D7"/>
<path d="M334.654 454.266L319.666 462.95" stroke="#D7D7D7" stroke-width="1.9227" stroke-miterlimit="10" stroke-linecap="round" stroke-linejoin="round"/>
<path d="M337.422 456.642L329.642 461.144" stroke="#D7D7D7" stroke-width="1.9227" stroke-miterlimit="10" stroke-linecap="round" stroke-linejoin="round"/>
<path d="M337.4 484.774L362.25 470.445C363.394 469.783 363.257 468.617 361.929 467.84L353.76 463.132C352.433 462.355 350.42 462.287 349.253 462.95L324.402 477.278C323.258 477.941 323.396 479.106 324.723 479.883L332.892 484.591C334.219 485.345 336.255 485.437 337.4 484.774Z" fill="#00C213"/>
<path d="M334.339 481.97C337.435 481.953 339.937 480.487 339.928 478.695C339.918 476.902 337.4 475.463 334.304 475.48C331.208 475.497 328.706 476.963 328.715 478.755C328.725 480.547 331.243 481.987 334.339 481.97Z" fill="white"/>
<path d="M353.944 465.806L338.956 474.49" stroke="white" stroke-width="1.9227" stroke-miterlimit="10" stroke-linecap="round" stroke-linejoin="round"/>
<path d="M356.712 468.16L348.91 472.685" stroke="white" stroke-width="1.9227" stroke-miterlimit="10" stroke-linecap="round" stroke-linejoin="round"/>
<path d="M356.689 496.314L381.54 481.986C382.684 481.323 382.546 480.158 381.219 479.381L373.05 474.673C371.723 473.896 369.709 473.827 368.542 474.49L343.692 488.819C342.548 489.481 342.685 490.647 344.012 491.424L352.181 496.132C353.509 496.886 355.522 496.977 356.689 496.314Z" fill="white"/>
<path d="M353.629 493.511C356.725 493.494 359.227 492.027 359.217 490.235C359.208 488.443 356.69 487.004 353.594 487.02C350.497 487.037 347.995 488.504 348.005 490.296C348.015 492.088 350.533 493.527 353.629 493.511Z" fill="#D7D7D7"/>
<path d="M373.211 477.324L358.223 486.008" stroke="#D7D7D7" stroke-width="1.9227" stroke-miterlimit="10" stroke-linecap="round" stroke-linejoin="round"/>
<path d="M375.979 479.701L368.199 484.203" stroke="#D7D7D7" stroke-width="1.9227" stroke-miterlimit="10" stroke-linecap="round" stroke-linejoin="round"/>
<path d="M604.688 209.376C605.397 212.553 603.384 215.729 601.736 216.095C600.112 216.46 601.164 213.512 600.455 210.336C599.745 207.159 597.526 204.943 599.173 204.577C600.775 204.189 603.979 206.177 604.688 209.376Z" fill="#F2C8C8"/>
<path d="M593.43 209.925C593.43 209.925 593.224 201.812 596.702 198.384" stroke="#F2C8C8" stroke-width="3.9584" stroke-miterlimit="10" stroke-linecap="round" stroke-linejoin="round"/>
<path opacity="0.34" d="M358.749 237.759L326.141 256.955C317.08 262.28 308.362 257.846 306.737 247.083L304.678 233.463C303.053 222.699 309.14 209.536 318.201 204.211L350.808 185.015C359.87 179.69 368.588 184.124 370.213 194.887L372.272 208.508C373.897 219.271 367.81 232.434 358.749 237.759Z" fill="#DFDFDF"/>
<path d="M355.362 233.006L322.755 252.202C313.693 257.527 304.975 253.094 303.35 242.33L301.291 228.71C299.666 217.946 305.753 204.783 314.814 199.458L347.422 180.262C356.483 174.937 365.201 179.371 366.826 190.134L368.885 203.755C370.51 214.518 364.423 227.681 355.362 233.006Z" fill="#00D254"/>
<path d="M330.878 230.743L328.017 211.73C327.788 210.199 329.001 208.394 330.26 208.394L347.696 208.485C349.092 208.485 349.412 210.656 348.245 212.187L333.669 231.109C332.617 232.48 331.106 232.275 330.878 230.743Z" fill="white"/>
<path opacity="0.34" d="M302.664 234.057L290.33 241.324C282.985 245.643 278.065 256.292 279.369 265.022C280.674 273.729 287.744 277.34 295.09 273.021L307.423 265.753C307.721 265.571 308.041 265.365 308.338 265.182L308.224 265.296L315.981 265.936L313.922 259.492C317.377 254.419 319.231 247.837 318.384 242.078C317.08 233.326 310.009 229.738 302.664 234.057Z" fill="#DFDFDF"/>
<path opacity="0.34" d="M376.688 168.356L362.204 176.88C356.414 180.285 352.502 188.717 353.531 195.619L353.783 197.356C354.813 204.234 360.419 207.091 366.208 203.686L380.693 195.162C386.482 191.757 390.395 183.324 389.365 176.423L389.113 174.686C388.084 167.784 382.5 164.928 376.688 168.356Z" fill="#E3CFCF"/>
<path d="M303.373 266.394L291.04 273.661C283.694 277.98 276.624 274.392 275.319 265.662C274.015 256.955 278.935 246.283 286.28 241.964L298.614 234.697C305.959 230.378 313.029 233.966 314.334 242.695C315.638 251.402 310.718 262.074 303.373 266.394Z" fill="#C4C4C4"/>
<path d="M304.174 265.914L311.932 266.554L309.872 260.086L304.174 265.914Z" fill="#C4C4C4"/>
<path d="M289.265 258.675C289.93 257.106 289.611 255.471 288.552 255.023C287.493 254.575 286.095 255.484 285.43 257.053C284.764 258.622 285.083 260.257 286.142 260.705C287.201 261.153 288.599 260.244 289.265 258.675Z" fill="white"/>
<path d="M296.657 254.327C297.323 252.758 297.004 251.123 295.945 250.675C294.886 250.227 293.488 251.136 292.823 252.705C292.157 254.274 292.476 255.909 293.535 256.357C294.594 256.805 295.992 255.896 296.657 254.327Z" fill="white"/>
<path d="M304.06 249.958C304.725 248.39 304.407 246.754 303.348 246.306C302.289 245.858 300.891 246.767 300.225 248.336C299.56 249.905 299.878 251.54 300.937 251.988C301.996 252.436 303.394 251.527 304.06 249.958Z" fill="white"/>
<path d="M383.119 188.032L368.634 196.556C362.845 199.961 357.239 197.127 356.209 190.226L355.957 188.489C354.928 181.61 358.818 173.178 364.63 169.75L379.114 161.226C384.903 157.821 390.51 160.654 391.539 167.556L391.791 169.293C392.821 176.194 388.931 184.627 383.119 188.032Z" fill="#2B2B2B"/>
<path d="M360.899 178.456L383.828 164.95" stroke="#FFFAFA" stroke-width="2.4286" stroke-miterlimit="10" stroke-linecap="round" stroke-linejoin="round"/>
<path d="M361.86 184.969L384.811 171.463" stroke="#FFFAFA" stroke-width="2.4286" stroke-miterlimit="10" stroke-linecap="round" stroke-linejoin="round"/>
<path d="M362.845 191.505L378.656 182.204" stroke="#FFFAFA" stroke-width="2.4286" stroke-miterlimit="10" stroke-linecap="round" stroke-linejoin="round"/>
</g>
<defs>
<clipPath id="clip0_6915_4535">
<rect width="768" height="555" fill="white"/>
</clipPath>
</defs>
</svg>
