<svg width="14" height="14" viewBox="0 0 14 14" fill="none" xmlns="http://www.w3.org/2000/svg">
<path d="M5.00476 2.7017C5.00476 2.61443 5.01688 2.42596 5.04113 2.13748C5.06718 1.8484 5.17627 1.54599 5.37202 1.22843C5.56595 0.912082 5.88048 0.627852 6.31804 0.376347C6.75378 0.126055 7.38345 0 8.20523 0H10.5203V2.52292H8.8252C8.65733 2.52292 8.50098 2.58595 8.35977 2.71019C8.21978 2.83442 8.14766 2.9526 8.14766 3.06229V4.63192H10.5197C10.4948 4.93918 10.4676 5.23796 10.436 5.52643L10.3421 6.28882C10.3045 6.54638 10.2664 6.78516 10.2288 7.00515H8.13069V14H5.00476V7.00455H3.47998V4.63192H5.00476V2.7017Z" fill="white"/>
</svg>
