<svg width="60" height="50" viewBox="0 0 60 50" fill="none" xmlns="http://www.w3.org/2000/svg">
<path d="M5.27344 49.5094H54.7266C57.6343 49.5094 60 47.1533 60 44.2574V5.74272C60 2.84677 57.6343 0.490723 54.7266 0.490723H5.27344C2.36566 0.490723 0 2.84677 0 5.74272V44.2574C0 47.1533 2.36566 49.5094 5.27344 49.5094ZM3.51562 5.74272C3.51562 4.77741 4.30418 3.99206 5.27344 3.99206H54.7266C55.6958 3.99206 56.4844 4.77741 56.4844 5.74272V44.2574C56.4844 45.2227 55.6958 46.0081 54.7266 46.0081H5.27344C4.30418 46.0081 3.51562 45.2227 3.51562 44.2574V5.74272Z" fill="#01E45C"/>
<path d="M8.78906 39.0056H10.9664C11.692 41.0431 13.6459 42.5069 15.9375 42.5069C18.2291 42.5069 20.183 41.0431 20.9086 39.0056H51.2109C52.1817 39.0056 52.9688 38.2218 52.9688 37.2549C52.9688 36.2881 52.1817 35.5043 51.2109 35.5043H20.9086C20.183 33.4667 18.2291 32.0029 15.9375 32.0029C13.6459 32.0029 11.692 33.4667 10.9664 35.5043H8.78906C7.81828 35.5043 7.03125 36.2881 7.03125 37.2549C7.03125 38.2218 7.81828 39.0056 8.78906 39.0056ZM15.9375 35.5043C16.9068 35.5043 17.6953 36.2896 17.6953 37.2549C17.6953 38.2202 16.9068 39.0056 15.9375 39.0056C14.9682 39.0056 14.1797 38.2202 14.1797 37.2549C14.1797 36.2896 14.9682 35.5043 15.9375 35.5043Z" fill="#2B2B2B"/>
<path d="M22.0446 28.24C22.5637 28.5595 23.2111 28.5874 23.7548 28.3166L37.8173 21.314C38.4129 21.0173 38.7891 20.4112 38.7891 19.7481C38.7891 19.0849 38.4129 18.4788 37.8173 18.1821L23.7548 11.1795C23.21 10.9081 22.5628 10.9371 22.0446 11.2562C21.5264 11.5751 21.2109 12.1386 21.2109 12.7454V26.7507C21.2109 27.3575 21.5264 27.921 22.0446 28.24ZM24.7266 15.5781L33.1007 19.7481L24.7266 23.918V15.5781Z" fill="#2B2B2B"/>
</svg>
