<svg width="8" height="14" viewBox="0 0 8 14" fill="none" xmlns="http://www.w3.org/2000/svg">
<path d="M2.00476 2.7017C2.00476 2.61443 2.01688 2.42596 2.04113 2.13748C2.06718 1.8484 2.17627 1.54599 2.37202 1.22843C2.56595 0.912082 2.88048 0.627852 3.31804 0.376347C3.75378 0.126055 4.38345 0 5.20523 0H7.52028V2.52292H5.8252C5.65733 2.52292 5.50098 2.58595 5.35977 2.71019C5.21978 2.83442 5.14766 2.9526 5.14766 3.06229V4.63192H7.51968C7.49483 4.93918 7.46756 5.23796 7.43604 5.52643L7.34211 6.28882C7.30453 6.54638 7.26635 6.78516 7.22878 7.00515H5.13069V14H2.00476V7.00455H0.47998V4.63192H2.00476V2.7017Z" fill="white"/>
</svg>
