<svg width="28" height="28" viewBox="0 0 28 28" fill="none" xmlns="http://www.w3.org/2000/svg">
<g clip-path="url(#clip0_6915_5134)">
<path d="M27.7068 10.2929L20.7067 3.29278C20.3161 2.90231 19.6829 2.90243 19.2924 3.29302C19.105 3.48052 18.9997 3.7347 18.9996 3.99985V6.99989H11.9995C11.4472 6.99989 10.9995 7.44762 10.9995 7.99993C10.9995 8.55224 11.4472 8.99996 11.9995 8.99996H19.9997C20.552 8.99996 20.9997 8.55224 20.9997 7.99993V6.41383L25.5858 10.9999L20.9997 15.586V14C20.9997 13.4477 20.552 12.9999 19.9997 12.9999H8.99944V9.99988C8.99933 9.44757 8.55149 8.99996 7.99923 9.00008C7.73415 9.00014 7.47991 9.10543 7.2924 9.29288L0.292324 16.293C-0.0980925 16.6835 -0.0980925 17.3165 0.292324 17.707L7.29246 24.7072C7.47997 24.8947 7.73427 25.0001 7.99947 25.0002C8.13089 25.0006 8.26115 24.9748 8.38244 24.9242C8.75604 24.7693 8.99956 24.4046 8.99944 24.0001V21.0001H15.9996C16.5519 21.0001 16.9996 20.5524 16.9996 20.0001C16.9996 19.4477 16.5519 19 15.9996 19H7.99947C7.44715 19 6.99943 19.4477 6.99943 20.0001V21.5861L2.41334 17L6.99943 12.4139V14C6.99943 14.5523 7.44715 15 7.99947 15H18.9996V18C18.9998 18.5524 19.4476 19 19.9998 18.9999C20.2649 18.9998 20.5192 18.8945 20.7067 18.7071L27.7068 11.7069C28.0972 11.3164 28.0972 10.6834 27.7068 10.2929Z" fill="#2B2B2B"/>
</g>
<defs>
<clipPath id="clip0_6915_5134">
<rect width="28" height="28" fill="white"/>
</clipPath>
</defs>
</svg>
