<svg width="28" height="22" viewBox="0 0 28 22" fill="none" xmlns="http://www.w3.org/2000/svg">
<path d="M27.7068 7.29291L20.7067 0.292783C20.3161 -0.097692 19.6829 -0.0975747 19.2924 0.293017C19.105 0.48052 18.9997 0.734704 18.9996 0.999845V3.99989H11.9995C11.4472 3.99989 10.9995 4.44762 10.9995 4.99993C10.9995 5.55224 11.4472 5.99996 11.9995 5.99996H19.9997C20.552 5.99996 20.9997 5.55224 20.9997 4.99993V3.41383L25.5858 7.99992L20.9997 12.586V11C20.9997 10.4477 20.552 9.99993 19.9997 9.99993H8.99944V6.99988C8.99933 6.44757 8.55149 5.99996 7.99923 6.00008C7.73415 6.00014 7.47991 6.10543 7.2924 6.29288L0.292324 13.293C-0.0980925 13.6835 -0.0980925 14.3165 0.292324 14.707L7.29246 21.7072C7.47997 21.8947 7.73427 22.0001 7.99947 22.0002C8.13089 22.0006 8.26115 21.9748 8.38244 21.9242C8.75604 21.7693 8.99956 21.4046 8.99944 21.0001V18.0001H15.9996C16.5519 18.0001 16.9996 17.5524 16.9996 17.0001C16.9996 16.4478 16.5519 16 15.9996 16H7.99947C7.44715 16 6.99943 16.4478 6.99943 17.0001V18.5861L2.41334 14L6.99943 9.41393V11C6.99943 11.5523 7.44715 12 7.99947 12H18.9996V15C18.9998 15.5524 19.4476 16 19.9998 15.9999C20.2649 15.9998 20.5192 15.8945 20.7067 15.7071L27.7068 8.70692C28.0972 8.31639 28.0972 7.68339 27.7068 7.29291Z" fill="#2B2B2B"/>
</svg>
