<svg width="14" height="8" viewBox="0 0 14 8" fill="none" xmlns="http://www.w3.org/2000/svg">
<path d="M13.8752 7.13072C13.8376 7.06771 13.6048 6.56192 12.4847 5.52235C11.3122 4.43376 11.4697 4.61053 12.882 2.72826C13.7422 1.58193 14.0861 0.881874 13.9785 0.582602C13.8761 0.29733 13.2434 0.372586 13.2434 0.372586L11.1398 0.384837C11.1398 0.384837 10.984 0.363835 10.8676 0.432966C10.7547 0.501221 10.6821 0.658732 10.6821 0.658732C10.6821 0.658732 10.3487 1.54605 9.90418 2.30036C8.96698 3.8921 8.59158 3.97611 8.43845 3.87722C8.08229 3.64708 8.17155 2.9514 8.17155 2.45787C8.17155 0.915127 8.40519 0.271953 7.71564 0.105691C7.48637 0.0505618 7.31836 0.0138091 6.73294 0.00768363C5.98214 -0.000191954 5.34597 0.0103088 4.98631 0.186197C4.74655 0.303456 4.56191 0.565101 4.67479 0.579977C4.81393 0.598353 5.12895 0.664858 5.29609 0.892375C5.51223 1.18552 5.50435 1.84532 5.50435 1.84532C5.50435 1.84532 5.62861 3.66108 5.21471 3.88685C4.93031 4.04174 4.54091 3.72584 3.70522 2.2811C3.27731 1.54167 2.95354 0.723487 2.95354 0.723487C2.95354 0.723487 2.89141 0.571226 2.78028 0.489845C2.64552 0.390962 2.4565 0.35946 2.4565 0.35946L0.456104 0.371711C0.456104 0.371711 0.155957 0.380462 0.0456987 0.510847C-0.0523085 0.62723 0.0378231 0.866998 0.0378231 0.866998C0.0378231 0.866998 1.60419 4.5309 3.37707 6.37816C5.00382 8.07141 6.8502 7.96028 6.8502 7.96028H7.68676C7.68676 7.96028 7.93966 7.93228 8.06829 7.79314C8.1873 7.66538 8.18293 7.42561 8.18293 7.42561C8.18293 7.42561 8.1663 6.30291 8.68784 6.13752C9.2015 5.97476 9.8613 7.2226 10.5605 7.70301C11.089 8.06616 11.4907 7.98653 11.4907 7.98653L13.3607 7.96028C13.3607 7.96028 14.339 7.8999 13.8752 7.13072Z" fill="white"/>
</svg>
